<svg width="32" height="32" viewBox="0 0 32 32" fill="none" xmlns="http://www.w3.org/2000/svg">
<path d="M9.625 3.5V5.25M5.25 9.625H3.5M22.75 8.75V7.875C22.75 7.17881 22.4734 6.51113 21.9812 6.01885C21.4889 5.52656 20.8212 5.25 20.125 5.25H7.875C7.17881 5.25 6.51113 5.52656 6.01885 6.01885C5.52656 6.51113 5.25 7.17881 5.25 7.875V20.125C5.25 20.8212 5.52656 21.4889 6.01885 21.9812C6.51113 22.4734 7.17881 22.75 7.875 22.75H8.75M5.25 14H3.5M5.25 18.375H3.5M14 3.5V5.25M18.375 3.5V5.25M19.25 11.5V8.75H8.75V19.25H11.5" stroke="#CCCCCC" stroke-width="2" stroke-linecap="round" stroke-linejoin="round"/>
<path d="M23.862 11.487L25.549 9.799C25.9007 9.44732 26.3777 9.24975 26.875 9.24975C27.3723 9.24975 27.8493 9.44732 28.201 9.799C28.5527 10.1507 28.7502 10.6277 28.7502 11.125C28.7502 11.6223 28.5527 12.0993 28.201 12.451L13.832 26.82C13.3033 27.3484 12.6514 27.7367 11.935 27.95L9.25 28.75L10.05 26.065C10.2633 25.3486 10.6516 24.6967 11.18 24.168L23.863 11.487H23.862ZM23.862 11.487L26.5 14.125" stroke="#CCCCCC" stroke-width="2" stroke-linecap="round" stroke-linejoin="round"/>
</svg>
